<svg id="svg" xmlns="http://www.w3.org/2000/svg" xmlns:xlink="http://www.w3.org/1999/xlink" width="400" height="400" viewBox="0, 0, 400,400"><g id="svgg"><path id="path0" d="M187.109 35.164 C 151.432 38.517,121.242 50.557,95.830 71.568 L 92.637 74.209 79.033 74.311 L 65.430 74.414 65.234 90.364 C 65.007 108.956,65.436 107.422,60.460 107.422 C 56.429 107.422,54.940 108.057,53.875 110.232 C 53.303 111.400,52.604 112.124,51.587 112.600 C 49.411 113.621,48.587 116.257,49.607 118.939 C 49.921 119.765,49.836 120.175,49.161 121.088 C 48.063 122.573,48.371 124.571,49.979 126.403 C 51.595 128.244,51.500 129.186,49.260 133.567 C 35.237 160.986,31.525 203.236,40.037 238.547 C 44.500 257.066,52.481 274.675,64.309 292.105 L 65.225 293.454 65.229 323.738 C 65.233 345.557,65.357 354.169,65.673 354.550 C 66.036 354.988,73.081 355.078,106.851 355.078 L 147.591 355.078 151.628 356.428 C 180.156 365.970,218.081 365.892,249.653 356.227 L 253.407 355.078 293.526 355.078 C 319.306 355.078,333.904 354.940,334.369 354.691 C 335.064 354.319,335.094 353.087,335.106 323.610 L 335.119 292.916 337.230 289.712 C 349.966 270.372,358.656 248.990,362.258 228.125 C 367.686 196.685,362.507 155.023,350.370 132.490 C 348.515 129.046,348.465 128.175,350.021 126.403 C 351.649 124.549,351.938 122.575,350.807 121.045 C 350.066 120.043,350.002 119.698,350.361 118.667 C 351.323 115.908,350.022 112.500,348.007 112.500 C 347.480 112.500,346.952 111.860,346.241 110.358 C 345.053 107.849,344.103 107.428,339.625 107.424 C 335.012 107.420,335.383 108.804,335.156 90.755 C 335.049 82.197,334.819 74.976,334.645 74.707 C 334.402 74.332,331.206 74.219,320.860 74.219 L 307.391 74.219 303.012 70.756 C 294.602 64.106,287.633 59.445,279.883 55.285 C 277.949 54.247,275.282 52.814,273.957 52.100 C 251.088 39.782,214.300 32.609,187.109 35.164 M209.570 39.659 C 240.757 41.034,275.897 54.230,299.023 73.251 L 300.195 74.215 267.303 74.217 L 234.410 74.219 234.165 72.754 C 232.260 61.358,224.162 52.881,215.897 53.630 L 213.540 53.844 211.860 51.975 C 207.220 46.814,198.496 46.497,185.477 51.016 C 173.763 55.081,167.516 61.429,165.526 71.289 L 164.974 74.023 132.212 74.123 L 99.451 74.223 103.729 71.039 C 131.960 50.029,169.710 37.810,201.758 39.308 C 203.262 39.378,206.777 39.536,209.570 39.659 M210.678 61.279 C 211.573 61.897,213.466 63.033,214.884 63.805 C 220.513 66.868,222.300 70.510,222.868 80.078 C 223.002 82.334,223.196 84.487,223.301 84.863 C 223.669 86.191,220.860 85.778,220.392 84.436 C 218.202 78.153,208.788 76.902,204.337 82.302 C 203.334 83.518,203.219 83.557,201.785 83.161 C 200.036 82.678,197.938 82.978,197.083 83.832 C 196.577 84.338,196.484 84.343,196.484 83.867 C 196.484 83.064,193.189 80.130,191.491 79.421 C 186.920 77.511,181.318 79.766,179.428 84.277 C 178.999 85.300,178.673 85.547,177.751 85.547 L 176.606 85.547 176.812 81.348 C 177.518 66.897,182.009 62.872,198.242 62.140 C 203.706 61.894,205.194 61.698,206.641 61.032 C 208.919 59.982,208.788 59.974,210.678 61.279 M229.616 79.668 C 230.114 80.216,231.370 81.895,232.409 83.398 C 235.912 88.473,238.504 90.270,241.044 89.385 C 242.495 88.879,242.435 88.705,240.234 87.039 C 238.483 85.712,236.295 82.067,235.763 79.590 L 235.532 78.516 270.471 78.516 L 305.410 78.516 309.511 82.218 C 314.734 86.935,321.461 94.562,328.625 103.890 C 331.100 107.113,331.050 107.804,328.343 107.819 C 323.722 107.846,317.659 110.361,315.206 113.270 C 313.375 115.442,312.763 115.734,308.203 116.616 C 298.826 118.430,281.549 122.293,280.583 122.792 C 279.862 123.165,278.855 123.292,277.667 123.158 C 276.507 123.027,275.454 123.152,274.743 123.506 C 273.985 123.883,273.199 123.962,272.266 123.755 C 271.514 123.588,265.625 123.461,259.180 123.472 L 247.461 123.492 245.117 122.406 C 240.285 120.165,235.832 120.755,231.160 124.254 C 228.267 126.421,226.285 126.600,226.720 124.655 C 227.562 120.897,227.765 119.233,227.535 118.003 L 227.273 116.602 228.514 118.164 C 229.197 119.023,229.827 119.799,229.914 119.887 C 230.767 120.747,233.182 116.157,233.195 113.653 C 233.203 111.880,233.206 111.876,234.473 112.019 C 237.624 112.376,240.269 110.360,237.924 109.389 C 235.411 108.348,234.362 103.719,236.061 101.165 C 239.495 96.001,238.934 92.863,233.499 86.821 C 232.100 85.267,230.480 82.981,229.898 81.743 C 229.316 80.505,228.372 78.968,227.799 78.326 C 226.777 77.182,226.776 77.174,227.734 77.916 C 228.271 78.332,229.118 79.120,229.616 79.668 M171.406 78.806 C 171.080 79.183,170.099 80.729,169.227 82.241 C 168.354 83.753,166.486 86.117,165.075 87.495 C 161.129 91.347,160.732 94.543,163.480 100.334 C 165.415 104.410,165.098 107.125,162.459 109.076 C 160.219 110.732,161.682 112.391,165.048 112.012 L 166.685 111.827 166.685 113.883 C 166.685 118.110,169.192 120.629,171.193 118.414 L 172.574 116.886 172.385 119.087 C 172.213 121.093,172.536 123.401,173.220 125.050 C 173.940 126.784,170.856 126.311,168.209 124.282 C 163.545 120.707,158.946 120.089,154.365 122.421 L 152.285 123.480 140.693 123.453 C 133.934 123.438,128.533 123.592,127.738 123.822 C 126.670 124.132,126.086 124.082,125.047 123.588 C 124.182 123.178,123.173 123.032,122.153 123.169 C 121.188 123.298,120.271 123.182,119.766 122.865 C 118.789 122.254,113.192 120.965,100.977 118.536 C 85.674 115.494,86.830 115.864,84.453 113.247 C 81.649 110.158,78.793 108.802,73.340 107.967 C 71.030 107.613,69.143 107.214,69.145 107.080 C 69.172 105.683,82.133 90.566,88.934 83.999 L 94.613 78.516 129.345 78.516 L 164.077 78.516 163.832 79.590 C 163.290 81.957,161.696 84.792,159.801 86.758 C 158.088 88.535,157.881 88.908,158.351 89.378 C 159.821 90.847,163.397 88.515,166.370 84.148 C 168.526 80.981,171.485 77.605,171.816 77.935 C 171.917 78.037,171.733 78.429,171.406 78.806 M82.370 84.302 C 79.283 87.485,75.364 91.836,73.660 93.970 C 71.956 96.105,70.330 98.109,70.047 98.424 C 69.618 98.899,69.531 97.265,69.531 88.756 L 69.531 78.516 78.757 78.516 L 87.983 78.516 82.370 84.302 M330.554 88.696 L 330.664 98.876 329.883 97.943 C 323.928 90.833,319.130 85.445,315.106 81.348 L 312.324 78.516 321.384 78.516 L 330.443 78.516 330.554 88.696 M190.345 82.579 C 194.828 84.531,195.778 89.638,192.258 92.863 C 189.067 95.785,184.696 95.183,182.552 91.526 C 179.527 86.364,184.891 80.204,190.345 82.579 M213.668 82.284 C 216.633 82.877,218.996 87.317,217.982 90.390 C 216.500 94.879,210.996 96.238,207.533 92.968 C 202.834 88.532,207.168 80.984,213.668 82.284 M201.588 86.732 C 202.169 87.043,202.346 87.563,202.352 88.979 C 202.402 99.719,219.329 101.135,221.292 90.563 C 221.535 89.255,222.754 88.256,223.199 89.002 C 223.730 89.892,222.978 96.358,222.044 98.926 C 219.965 104.643,219.858 105.306,220.070 111.133 C 220.179 114.141,220.380 117.129,220.515 117.773 C 220.651 118.418,220.156 117.594,219.416 115.942 C 216.521 109.480,214.634 107.294,210.157 105.218 C 205.559 103.086,205.909 103.473,206.465 101.143 C 206.644 100.395,206.438 99.819,205.662 98.897 C 204.259 97.230,203.906 97.332,203.906 99.405 C 203.906 102.098,200.765 103.471,198.397 101.812 C 197.962 101.508,197.266 101.347,196.850 101.456 C 196.166 101.635,196.094 101.436,196.094 99.387 L 196.094 97.119 194.885 98.267 C 193.776 99.319,193.693 99.569,193.891 101.284 C 194.105 103.138,194.095 103.159,192.659 103.782 C 185.705 106.801,183.913 108.447,181.212 114.292 C 179.444 118.118,179.203 118.279,179.753 115.262 C 180.470 111.323,179.945 104.949,178.561 100.806 C 177.298 97.024,177.144 96.244,176.762 91.699 C 176.446 87.933,178.002 87.676,179.017 91.328 C 181.800 101.338,195.916 99.755,197.483 89.258 C 197.882 86.583,199.476 85.602,201.588 86.732 M172.627 98.928 C 172.428 99.622,172.266 100.675,172.266 101.267 C 172.266 101.964,172.059 102.344,171.680 102.344 C 170.873 102.344,170.892 99.290,171.706 98.127 C 172.543 96.932,173.069 97.390,172.627 98.928 M228.173 98.857 C 228.797 101.090,228.379 103.712,227.601 102.441 C 227.063 101.563,226.875 97.565,227.379 97.733 C 227.670 97.830,228.027 98.336,228.173 98.857 M72.161 112.632 C 81.355 113.899,84.836 118.154,83.440 126.416 C 82.344 132.900,80.145 135.547,75.853 135.547 C 72.636 135.547,61.002 132.703,57.813 131.136 C 55.884 130.190,55.024 128.581,56.699 129.054 C 62.328 130.642,67.188 130.589,67.188 128.939 C 67.188 127.869,66.978 127.789,61.904 126.935 C 53.874 125.583,52.244 124.816,52.914 122.705 C 53.157 121.939,53.170 121.939,54.937 122.720 C 59.559 124.765,66.585 125.502,67.263 124.013 C 67.908 122.598,67.608 122.440,61.714 121.081 C 55.522 119.653,53.377 118.646,53.196 117.083 C 53.013 115.494,53.875 115.423,56.590 116.802 C 58.055 117.546,61.118 118.500,64.456 119.251 L 69.922 120.480 69.930 122.838 C 69.946 127.204,73.274 131.641,76.534 131.641 C 79.156 131.641,79.546 129.542,77.137 128.394 C 74.674 127.219,73.579 123.796,74.312 119.563 C 74.711 117.254,72.702 115.143,71.680 116.797 C 70.858 118.127,56.250 114.400,56.250 112.860 C 56.250 111.565,63.646 111.459,72.161 112.632 M343.555 112.874 C 343.555 114.442,330.277 117.987,328.518 116.889 C 326.534 115.650,325.278 116.959,325.727 119.798 C 326.419 124.175,325.485 126.931,322.847 128.300 C 320.286 129.629,320.660 131.641,323.468 131.641 C 326.602 131.641,329.969 127.153,330.176 122.700 L 330.273 120.611 335.739 119.273 C 338.745 118.538,342.243 117.416,343.513 116.782 C 345.270 115.904,345.948 115.732,346.348 116.065 C 348.606 117.938,343.912 120.383,335.547 121.691 C 332.539 122.161,331.502 123.360,333.016 124.616 C 333.823 125.286,339.780 124.492,343.713 123.189 C 346.667 122.210,347.466 122.315,347.205 123.648 C 346.925 125.070,345.187 125.751,339.311 126.738 C 333.096 127.782,332.194 128.141,332.825 129.321 C 333.455 130.497,335.567 130.624,339.919 129.747 C 344.294 128.866,344.622 128.899,343.528 130.108 C 342.136 131.646,330.548 135.008,325.195 135.428 C 319.217 135.896,316.655 132.584,316.191 123.788 C 315.742 115.260,322.577 111.665,338.867 111.858 L 343.555 111.914 343.555 112.874 M201.367 113.075 C 202.227 113.384,203.809 113.646,204.883 113.657 C 210.800 113.715,213.143 116.193,214.077 123.381 C 214.563 127.120,214.349 128.001,213.700 124.929 C 212.621 119.818,209.736 116.797,205.937 116.797 C 205.204 116.797,203.583 116.532,202.334 116.208 C 200.774 115.804,199.764 115.734,199.105 115.985 C 198.578 116.185,196.849 116.472,195.264 116.622 C 189.501 117.167,187.491 119.077,186.313 125.129 C 185.615 128.710,185.477 127.473,186.087 123.108 C 187.025 116.399,188.890 114.392,194.808 113.730 C 196.530 113.538,198.272 113.187,198.677 112.952 C 199.608 112.411,199.514 112.407,201.367 113.075 M98.763 122.647 C 114.000 125.602,116.946 126.189,117.014 126.282 C 117.063 126.350,115.730 131.878,113.485 140.918 C 113.365 141.401,112.986 141.797,112.643 141.797 C 111.308 141.797,92.064 137.327,86.394 135.701 C 85.385 135.411,85.360 135.624,86.926 131.268 C 87.680 129.173,88.032 127.283,88.184 124.530 C 88.300 122.425,88.472 120.703,88.565 120.703 C 88.659 120.703,93.248 121.578,98.763 122.647 M311.390 122.315 C 311.158 124.752,312.022 129.308,313.283 132.293 C 313.903 133.761,314.288 135.074,314.138 135.213 C 313.492 135.814,286.878 142.086,286.515 141.723 C 286.424 141.632,285.509 138.140,284.482 133.962 L 282.615 126.367 296.484 123.568 C 313.248 120.184,311.580 120.324,311.390 122.315 M162.625 125.809 C 167.459 127.152,170.613 134.387,168.535 139.368 C 165.352 146.999,154.096 147.232,150.780 139.736 C 147.331 131.939,154.470 123.545,162.625 125.809 M243.618 126.203 C 249.491 129.046,251.626 136.428,247.960 141.215 C 240.891 150.447,226.832 142.691,230.904 131.806 C 232.866 126.563,238.884 123.911,243.618 126.203 M147.080 128.613 C 145.994 132.063,145.673 133.705,145.665 135.861 C 145.654 138.315,146.512 141.691,147.517 143.153 C 148.591 144.716,148.481 144.721,134.570 143.725 C 131.777 143.525,129.185 143.361,128.809 143.360 C 128.180 143.359,128.125 142.727,128.125 135.547 L 128.125 127.734 137.741 127.734 L 147.357 127.734 147.080 128.613 M271.484 135.496 L 271.484 143.258 268.848 143.495 C 267.397 143.625,264.277 143.827,261.914 143.945 C 259.551 144.062,256.076 144.255,254.192 144.374 L 250.767 144.591 251.907 142.901 C 254.394 139.214,254.828 135.021,253.200 130.393 C 252.224 127.616,251.431 127.837,262.598 127.780 L 271.484 127.734 271.484 135.496 M278.494 129.257 C 279.211 130.595,281.691 140.644,281.567 141.707 C 281.280 144.179,277.821 143.705,276.465 141.008 C 275.676 139.436,275.463 129.839,276.188 128.485 C 276.658 127.607,277.820 127.996,278.494 129.257 M123.741 134.366 C 123.868 141.449,123.628 142.373,121.495 143.012 C 117.915 144.084,117.401 142.262,119.359 135.436 C 121.215 128.966,121.653 128.039,122.776 128.198 C 123.610 128.317,123.636 128.480,123.741 134.366 M225.554 129.895 C 226.341 130.223,226.887 130.651,226.767 130.845 C 223.795 135.653,227.842 145.148,234.201 148.291 L 237.109 149.728 237.099 153.087 C 237.087 157.231,236.575 162.857,235.678 168.705 L 234.996 173.153 234.166 170.463 C 232.678 165.644,230.466 162.005,226.131 157.251 C 207.958 137.316,174.899 144.421,165.807 170.216 L 164.946 172.659 164.508 170.412 C 163.765 166.601,162.891 158.177,162.891 154.836 C 162.891 150.006,163.060 149.528,165.170 148.421 C 171.840 144.919,175.267 137.277,172.828 131.348 C 172.315 130.100,172.324 130.078,173.360 130.073 C 173.940 130.070,174.768 129.972,175.200 129.856 C 175.810 129.692,176.501 130.243,178.271 132.303 C 181.244 135.762,184.009 138.045,186.914 139.437 C 189.256 140.559,193.919 141.967,193.655 141.473 C 192.580 139.460,191.715 137.174,191.400 135.516 C 190.867 132.702,191.209 132.643,191.986 135.414 C 193.091 139.349,197.219 143.750,199.805 143.750 C 202.612 143.750,206.745 139.254,208.065 134.766 L 208.582 133.008 208.359 135.352 C 208.177 137.274,207.550 139.178,206.341 141.486 C 206.121 141.906,211.604 140.309,213.224 139.482 C 216.120 138.003,219.437 135.193,221.699 132.303 C 224.445 128.794,223.834 129.176,225.554 129.895 M348.775 139.658 C 366.912 185.068,363.275 237.615,339.191 278.125 C 337.594 280.811,335.989 283.402,335.624 283.884 C 335.000 284.710,334.964 280.483,335.017 211.261 L 335.073 137.760 338.760 136.730 C 340.787 136.163,343.311 135.244,344.368 134.687 C 345.424 134.131,346.323 133.706,346.364 133.742 C 346.405 133.779,347.490 136.441,348.775 139.658 M60.641 136.517 L 65.226 137.961 65.232 211.558 C 65.236 252.037,65.168 285.156,65.081 285.156 C 64.742 285.156,57.764 272.978,55.569 268.555 C 48.877 255.069,44.502 241.165,41.417 223.578 C 36.877 197.690,41.597 161.346,52.719 136.557 L 53.887 133.954 54.971 134.514 C 55.567 134.822,58.118 135.723,60.641 136.517 M76.740 139.679 C 79.113 139.543,81.494 139.412,82.031 139.387 C 82.568 139.362,86.523 140.222,90.820 141.299 C 99.493 143.472,110.671 145.996,113.791 146.486 C 114.907 146.661,116.543 147.074,117.425 147.405 C 119.236 148.082,121.770 147.961,123.465 147.115 C 124.430 146.634,124.842 146.631,126.384 147.095 C 128.843 147.835,134.758 148.370,143.359 148.631 C 147.334 148.751,152.432 149.046,154.688 149.286 L 158.789 149.722 158.663 153.466 C 158.443 159.949,160.653 176.315,162.702 183.385 C 163.260 185.311,163.959 188.150,164.254 189.693 C 164.549 191.236,165.528 194.296,166.429 196.494 C 168.065 200.484,168.067 200.491,167.627 203.151 C 167.047 206.665,167.097 210.782,167.741 212.587 C 168.210 213.901,168.193 214.063,167.569 214.261 C 166.438 214.620,163.536 217.981,161.836 220.903 C 157.583 228.208,143.750 256.843,143.750 258.341 C 143.750 258.612,142.967 259.386,142.011 260.060 C 139.862 261.574,138.829 263.537,138.224 267.251 C 137.784 269.952,137.623 270.264,135.441 272.656 C 131.782 276.669,129.047 281.187,124.685 290.430 C 122.455 295.156,119.240 301.961,117.542 305.552 C 115.843 309.143,114.450 312.571,114.447 313.169 C 114.432 316.001,107.507 317.488,99.173 316.450 C 96.847 316.160,94.847 316.118,93.698 316.336 L 91.889 316.679 89.133 314.188 C 85.113 310.556,76.968 301.296,71.952 294.656 L 69.538 291.461 69.531 248.953 C 69.528 225.574,69.526 191.298,69.528 172.785 L 69.531 139.125 70.979 139.525 C 71.836 139.762,74.183 139.825,76.740 139.679 M322.852 139.713 C 325.215 139.820,327.896 139.736,328.809 139.526 L 330.469 139.146 330.469 215.275 L 330.469 291.404 327.657 295.214 C 323.111 301.372,317.988 307.327,313.429 311.753 C 308.301 316.732,308.028 316.901,306.013 316.345 C 304.898 316.037,303.430 316.056,300.509 316.416 C 292.889 317.356,285.547 316.128,285.547 313.913 C 285.546 313.243,285.001 311.553,284.336 310.156 C 283.670 308.760,282.101 305.313,280.850 302.498 C 274.402 287.983,268.279 276.941,264.410 272.852 C 261.972 270.274,261.807 269.983,261.542 267.773 C 261.068 263.811,259.386 260.799,256.936 259.525 C 256.347 259.218,255.897 258.839,255.937 258.683 C 256.281 257.313,252.627 248.827,246.982 237.891 C 238.089 220.659,236.108 217.290,233.603 215.139 C 232.138 213.880,232.125 213.845,232.381 211.708 C 232.523 210.521,232.495 207.286,232.320 204.518 C 232.051 200.281,232.097 199.282,232.616 198.189 C 233.584 196.149,234.357 193.838,235.343 190.039 C 235.845 188.105,236.714 184.991,237.274 183.118 C 239.205 176.664,240.930 164.852,241.290 155.615 L 241.520 149.706 244.881 149.279 C 246.730 149.044,251.521 148.757,255.528 148.642 C 263.805 148.403,270.257 147.829,273.177 147.072 C 274.913 146.621,275.327 146.634,276.356 147.169 C 277.910 147.976,282.134 147.935,283.409 147.099 C 283.925 146.761,284.850 146.484,285.465 146.484 C 286.763 146.484,310.306 141.051,314.063 139.884 C 315.459 139.451,317.041 139.191,317.578 139.307 C 318.115 139.423,320.488 139.605,322.852 139.713 M207.652 151.571 C 228.216 156.830,237.791 180.307,226.888 198.735 C 215.007 218.816,184.771 218.485,172.685 198.140 C 158.646 174.509,180.989 144.753,207.652 151.571 M198.319 155.957 C 198.361 157.300,198.405 159.058,198.417 159.863 C 198.437 161.308,198.459 161.328,200.000 161.328 L 201.563 161.328 201.563 157.422 L 201.563 153.516 199.902 153.515 L 198.242 153.515 198.319 155.957 M185.654 157.115 L 184.394 157.873 185.602 160.284 C 187.343 163.759,187.328 163.747,188.903 162.818 L 190.256 162.019 188.843 159.428 C 187.053 156.147,187.148 156.216,185.654 157.115 M211.355 159.228 C 210.463 160.652,209.784 161.860,209.847 161.913 C 210.211 162.222,212.588 163.318,212.666 163.212 C 213.271 162.397,215.674 158.133,215.570 158.062 C 214.772 157.519,213.274 156.641,213.143 156.641 C 213.052 156.641,212.248 157.805,211.355 159.228 M216.005 166.680 C 214.306 167.849,203.730 176.413,203.215 177.036 C 202.856 177.471,202.253 177.584,201.026 177.446 C 200.095 177.341,198.974 177.447,198.536 177.682 C 197.836 178.056,197.033 177.537,191.949 173.429 C 185.388 168.126,183.594 167.541,183.594 170.707 C 183.594 172.086,183.920 172.424,188.867 176.174 C 194.078 180.124,195.708 181.506,195.454 181.759 C 194.985 182.228,195.891 184.884,196.881 185.944 C 199.475 188.721,204.566 186.334,204.988 182.142 L 205.176 180.273 212.349 174.609 C 219.813 168.715,220.353 168.052,218.817 166.662 C 217.910 165.841,217.217 165.846,216.005 166.680 M175.280 167.931 C 174.403 169.416,174.283 169.189,176.920 171.039 L 179.231 172.660 180.090 171.270 C 180.562 170.506,180.884 169.840,180.806 169.789 C 180.728 169.739,179.656 169.045,178.424 168.248 C 175.750 166.516,176.095 166.550,175.280 167.931 M221.854 168.227 C 218.906 170.179,218.946 170.114,219.899 171.452 L 220.753 172.652 223.072 171.077 C 225.670 169.312,225.652 169.349,224.684 167.881 L 223.982 166.818 221.854 168.227 M172.536 180.784 L 170.659 180.904 170.779 182.347 L 170.898 183.789 174.812 183.899 L 178.725 184.010 178.681 182.337 L 178.637 180.664 176.526 180.664 C 175.364 180.664,173.569 180.718,172.536 180.784 M221.680 180.794 C 221.572 180.902,221.484 181.663,221.484 182.487 L 221.484 183.984 225.195 183.984 L 228.906 183.984 228.906 182.422 L 228.906 180.859 226.270 180.827 C 224.819 180.809,223.237 180.750,222.754 180.697 C 222.270 180.643,221.787 180.687,221.680 180.794 M201.095 182.079 C 201.222 183.170,200.458 183.745,199.414 183.344 C 198.815 183.114,198.606 181.602,199.105 181.103 C 199.742 180.467,200.979 181.073,201.095 182.079 M176.982 193.692 C 174.505 195.357,174.388 195.586,175.357 196.848 L 176.086 197.798 178.470 196.262 C 181.188 194.511,181.108 194.667,179.966 193.301 L 179.102 192.267 176.982 193.692 M219.392 193.603 C 219.020 194.382,218.768 195.051,218.831 195.091 C 220.337 196.037,223.948 198.045,223.998 197.963 C 224.034 197.902,224.363 197.374,224.728 196.791 C 225.674 195.278,225.649 195.235,222.915 193.636 C 219.918 191.883,220.211 191.885,219.392 193.603 M211.044 201.487 L 209.782 202.160 211.358 204.790 L 212.933 207.420 214.059 206.838 C 215.730 205.974,215.738 205.775,214.193 203.173 C 212.601 200.490,212.756 200.573,211.044 201.487 M186.407 202.246 C 185.497 203.540,184.268 205.900,184.444 206.014 C 186.921 207.619,186.634 207.725,188.460 204.532 L 189.554 202.618 188.625 201.904 C 187.406 200.967,187.295 200.984,186.407 202.246 M198.438 206.836 L 198.438 210.938 200.000 210.938 L 201.563 210.938 201.563 206.836 L 201.563 202.734 200.000 202.734 L 198.438 202.734 198.438 206.836 M227.734 208.187 L 227.734 210.904 221.766 216.878 C 217.939 220.708,214.891 224.170,213.270 226.526 C 206.714 236.054,206.182 236.438,199.631 236.357 C 194.964 236.299,192.778 235.262,190.801 232.167 C 186.473 225.394,180.354 218.412,173.713 212.668 L 171.875 211.079 171.875 208.429 L 171.875 205.778 175.009 208.726 C 189.535 222.391,212.980 221.882,225.658 207.627 C 226.693 206.464,227.583 205.502,227.637 205.490 C 227.690 205.478,227.734 206.692,227.734 208.187 M172.675 227.172 C 175.429 230.633,178.163 232.865,182.366 235.086 L 185.949 236.978 184.726 239.269 C 182.495 243.451,179.419 248.177,173.412 256.652 C 166.078 267.000,165.380 267.892,163.924 268.777 L 162.757 269.487 161.267 266.423 C 159.095 261.960,156.753 260.252,151.267 259.127 C 149.603 258.786,148.198 258.468,148.143 258.419 C 148.088 258.370,150.783 252.721,154.131 245.864 C 157.480 239.008,161.005 231.785,161.966 229.813 C 163.887 225.873,166.273 222.009,167.612 220.670 L 168.475 219.806 169.578 222.236 C 170.184 223.572,171.578 225.793,172.675 227.172 M233.371 221.777 C 234.725 223.642,252.155 258.131,251.882 258.405 C 251.801 258.485,250.510 258.747,249.012 258.986 C 242.762 259.983,238.796 263.238,237.712 268.262 C 237.076 271.209,233.839 267.501,222.858 251.244 C 213.481 237.362,213.434 237.247,216.504 235.695 C 222.440 232.692,227.053 228.166,230.091 222.363 C 231.624 219.435,231.665 219.428,233.371 221.777 M191.009 240.569 C 191.005 241.137,190.836 243.184,190.634 245.117 C 188.479 265.671,188.191 271.417,189.211 273.462 C 189.775 274.591,189.779 274.891,189.255 276.435 C 188.537 278.551,188.530 281.732,189.240 283.723 C 189.734 285.109,189.704 285.354,188.830 287.043 C 186.301 291.928,185.866 302.120,187.607 315.625 C 188.175 320.029,188.909 326.226,189.237 329.395 L 189.833 335.157 188.410 337.403 C 187.627 338.638,185.725 340.886,184.183 342.399 C 181.377 345.151,180.078 347.522,180.078 349.890 L 180.078 350.813 163.574 350.700 L 147.070 350.586 142.471 348.740 C 126.373 342.278,126.622 342.427,127.854 339.989 C 129.423 336.883,130.913 331.654,131.143 328.447 C 131.340 325.694,131.434 325.429,132.290 325.214 C 134.007 324.783,136.310 322.209,140.304 316.258 C 142.483 313.009,145.580 308.614,147.186 306.490 C 154.000 297.473,158.203 288.400,158.203 282.704 C 158.203 281.425,158.469 280.892,159.743 279.618 C 161.183 278.178,161.693 277.152,162.277 274.512 C 162.434 273.801,162.766 273.438,163.256 273.438 C 166.008 273.438,169.206 270.647,173.242 264.725 C 174.531 262.834,176.971 259.318,178.664 256.913 C 183.648 249.830,188.429 242.504,189.209 240.753 C 190.017 238.940,191.020 238.837,191.009 240.569 M214.672 247.209 C 216.249 249.496,220.192 255.267,223.433 260.033 C 229.907 269.552,232.409 272.287,235.460 273.177 C 237.172 273.676,237.299 273.809,237.751 275.581 C 238.078 276.863,238.745 277.982,239.860 279.118 C 241.278 280.563,241.511 281.048,241.652 282.845 C 242.156 289.303,245.668 297.252,251.388 304.883 C 252.837 306.816,255.956 311.211,258.318 314.648 C 264.023 322.951,265.059 324.185,267.071 325.075 C 268.004 325.488,268.670 325.984,268.551 326.178 C 268.089 326.925,269.507 333.570,270.883 337.109 C 271.676 339.150,272.409 341.172,272.511 341.602 C 272.704 342.415,267.106 344.957,255.758 349.207 L 251.555 350.781 235.543 350.781 L 219.531 350.781 219.531 349.147 C 219.531 346.787,218.167 344.263,216.112 342.822 C 213.665 341.105,209.769 335.141,209.989 333.449 C 210.077 332.777,210.512 329.063,210.958 325.195 C 211.403 321.328,212.107 315.527,212.522 312.305 C 214.023 300.647,213.053 288.667,210.391 286.005 C 209.922 285.536,209.948 285.227,210.577 283.842 C 211.464 281.889,211.537 278.814,210.748 276.580 C 210.227 275.103,210.233 274.813,210.804 273.708 C 211.533 272.299,211.613 266.166,210.957 262.008 C 210.584 259.639,208.984 242.103,208.984 240.373 C 208.984 238.621,210.302 239.106,211.078 241.144 C 211.477 242.193,213.095 244.922,214.672 247.209 M204.762 245.408 C 204.910 247.931,205.404 253.029,205.860 256.736 C 206.930 265.436,207.224 272.114,206.547 272.351 C 206.161 272.486,194.521 272.440,193.262 272.299 C 192.714 272.237,192.966 266.126,193.918 256.390 C 194.441 251.049,194.984 245.312,195.125 243.640 L 195.381 240.601 199.937 240.711 L 204.492 240.820 204.762 245.408 M152.052 263.448 C 157.311 265.325,159.796 270.846,157.299 275.107 C 152.080 284.012,138.912 275.781,142.806 266.048 C 143.912 263.285,148.209 262.077,152.052 263.448 M255.139 263.815 C 259.352 266.575,257.450 275.771,252.170 278.169 C 243.619 282.053,237.342 270.241,245.043 264.757 C 247.773 262.814,252.883 262.337,255.139 263.815 M143.458 280.593 C 145.756 282.152,149.326 283.034,152.081 282.724 L 153.771 282.533 153.428 284.724 C 152.969 287.662,150.335 294.136,148.499 296.837 C 147.682 298.039,144.839 302.100,142.182 305.859 C 139.524 309.619,136.135 314.447,134.650 316.589 C 130.475 322.606,130.163 322.680,124.503 318.996 C 117.843 314.661,117.926 315.185,122.346 305.364 C 128.271 292.201,133.424 282.409,137.032 277.458 L 138.799 275.032 140.103 277.117 C 140.900 278.391,142.206 279.744,143.458 280.593 M264.250 279.729 C 266.553 283.145,271.579 292.535,273.844 297.656 C 274.842 299.912,276.741 304.072,278.064 306.901 C 281.648 314.566,281.512 315.145,275.242 318.876 C 268.818 322.698,269.545 323.066,262.091 312.215 C 259.026 307.753,255.236 302.432,253.668 300.391 C 250.592 296.386,248.126 291.527,246.874 287.009 C 245.679 282.698,245.710 282.591,248.107 282.757 C 252.689 283.074,257.684 280.563,259.672 276.944 L 260.742 274.995 261.626 276.072 C 262.112 276.664,263.293 278.310,264.250 279.729 M203.990 277.298 C 206.729 277.640,206.851 277.756,206.766 279.939 C 206.635 283.320,204.913 284.404,199.648 284.421 C 195.139 284.435,193.299 283.176,193.217 280.019 C 193.144 277.259,196.632 276.378,203.990 277.298 M198.438 288.649 C 201.161 288.894,202.055 288.821,205.339 288.084 C 208.741 287.320,209.870 300.875,207.714 316.602 C 207.154 320.684,206.482 325.918,206.220 328.233 L 205.743 332.442 199.857 332.334 L 193.971 332.227 192.665 321.484 C 190.073 300.148,190.776 287.106,194.465 288.104 C 195.039 288.259,196.826 288.505,198.438 288.649 M74.702 305.273 C 77.403 308.496,81.393 312.876,83.568 315.006 L 87.522 318.879 86.574 319.889 C 82.260 324.484,82.851 326.231,90.044 330.136 C 112.561 342.361,122.749 347.266,123.749 346.361 C 124.437 345.738,124.674 345.801,128.155 347.518 C 130.179 348.516,132.714 349.645,133.788 350.028 C 135.691 350.706,134.878 350.725,102.637 350.753 L 69.531 350.781 69.531 325.423 C 69.531 311.475,69.417 299.742,69.278 299.348 C 68.944 298.402,68.938 298.395,74.702 305.273 M330.558 324.902 L 330.452 350.781 297.625 350.781 C 275.840 350.781,264.879 350.650,265.039 350.391 C 265.172 350.176,265.495 350.000,265.758 350.000 C 266.274 350.000,271.819 347.718,273.832 346.678 C 274.960 346.095,275.132 346.092,275.750 346.651 C 276.741 347.548,277.037 347.470,281.387 345.162 C 283.568 344.005,289.570 340.909,294.727 338.283 C 299.883 335.656,304.277 333.377,304.492 333.217 C 304.707 333.058,306.992 331.826,309.570 330.480 C 316.945 326.630,317.587 324.954,313.545 320.117 L 312.566 318.945 317.728 313.672 C 320.567 310.771,324.625 306.246,326.745 303.614 C 328.866 300.983,330.615 298.873,330.632 298.927 C 330.650 298.980,330.616 310.669,330.558 324.902 M120.463 322.180 C 122.851 323.637,125.288 325.040,125.879 325.297 C 128.135 326.279,124.383 341.797,121.889 341.797 C 121.373 341.797,117.679 339.953,114.835 338.276 C 113.698 337.605,109.499 335.375,105.505 333.320 C 86.720 323.653,87.808 324.418,89.941 322.375 C 91.825 320.572,93.894 320.157,98.117 320.734 C 102.150 321.285,109.589 320.989,112.891 320.146 C 115.978 319.358,115.727 319.290,120.463 322.180 M287.109 320.136 C 290.257 321.009,297.304 321.293,301.627 320.720 C 306.105 320.128,308.122 320.544,310.035 322.457 C 312.118 324.540,312.861 324.014,294.336 333.593 C 290.898 335.370,285.925 337.959,283.283 339.346 C 280.642 340.733,278.232 341.772,277.928 341.655 C 276.593 341.143,273.301 332.501,272.833 328.280 L 272.568 325.896 276.226 323.920 C 278.237 322.833,280.586 321.413,281.445 320.764 C 283.242 319.408,284.129 319.310,287.109 320.136 M203.483 337.722 C 207.007 338.768,215.234 347.493,215.234 350.183 C 215.234 350.710,213.403 350.781,199.797 350.781 L 184.360 350.781 184.618 349.707 C 185.079 347.781,185.852 346.740,189.928 342.544 C 195.194 337.122,198.047 336.107,203.483 337.722 M236.113 355.044 C 235.814 355.332,229.370 356.515,222.070 357.622 C 212.626 359.055,194.891 359.423,184.797 358.396 C 178.367 357.742,178.874 357.813,170.313 356.364 L 163.867 355.273 200.000 355.075 C 219.873 354.966,236.212 354.834,236.309 354.782 C 236.405 354.730,236.317 354.848,236.113 355.044 " stroke="none" fill="currentColor" fill-rule="evenodd"></path></g></svg>